<svg width="54" height="54" viewBox="0 0 54 54" fill="none" xmlns="http://www.w3.org/2000/svg">
<path d="M26.9997 0.333313C12.2797 0.333313 0.333008 12.28 0.333008 27C0.333008 41.72 12.2797 53.6666 26.9997 53.6666C41.7197 53.6666 53.6663 41.72 53.6663 27C53.6663 12.28 41.7197 0.333313 26.9997 0.333313ZM26.9997 48.3333C15.2397 48.3333 5.66634 38.76 5.66634 27C5.66634 15.24 15.2397 5.66665 26.9997 5.66665C38.7597 5.66665 48.333 15.24 48.333 27C48.333 38.76 38.7597 48.3333 26.9997 48.3333ZM27.8263 24.7066C23.1063 23.5066 21.5863 22.2 21.5863 20.2533C21.5863 18.0133 23.693 16.44 27.1863 16.44C30.8663 16.44 32.253 18.2 32.3597 20.8133H36.9197C36.7863 17.24 34.5997 13.96 30.2797 12.8933V8.33331H24.0663V12.84C20.0397 13.6933 16.813 16.3066 16.813 20.3333C16.813 25.1066 20.7863 27.5066 26.573 28.8933C31.773 30.12 32.813 31.96 32.813 33.88C32.813 35.2933 31.773 37.5866 27.213 37.5866C22.9463 37.5866 21.2663 35.6666 21.0263 33.2133H16.4397C16.7063 37.7466 20.0663 40.3066 24.0663 41.1333V45.6666H30.3063V41.2133C34.3597 40.44 37.5597 38.12 37.5863 33.8266C37.5597 27.96 32.5197 25.9333 27.8263 24.7066Z" fill="#26E600"/>
</svg>
