<svg width="48" height="58" viewBox="0 0 48 58" fill="none" xmlns="http://www.w3.org/2000/svg">
<path d="M24 21.6C29.8933 21.6 34.6667 16.8267 34.6667 10.9333C34.6667 5.04 29.8933 0.266663 24 0.266663C18.1067 0.266663 13.3333 5.04 13.3333 10.9333C13.3333 16.8267 18.1067 21.6 24 21.6ZM24 5.6C26.9333 5.6 29.3333 8 29.3333 10.9333C29.3333 13.8667 26.9333 16.2667 24 16.2667C21.0667 16.2667 18.6667 13.8667 18.6667 10.9333C18.6667 8 21.0667 5.6 24 5.6ZM24 28.4C17.7067 22.5333 9.28 18.9333 0 18.9333V48.2667C9.28 48.2667 17.7067 51.8667 24 57.7333C30.2933 51.8933 38.72 48.2667 48 48.2667V18.9333C38.72 18.9333 30.2933 22.5333 24 28.4ZM42.6667 43.28C35.92 44.1867 29.52 46.7467 24 50.8C18.5067 46.7467 12.08 44.16 5.33333 43.2533V24.72C10.9333 25.7333 16.1333 28.32 20.3733 32.2667L24 35.68L27.6267 32.2933C31.8667 28.3467 37.0667 25.76 42.6667 24.7467V43.28Z" fill="#26E600"/>
</svg>
