<svg width="22" height="20" viewBox="0 0 22 20" fill="none" xmlns="http://www.w3.org/2000/svg">
<path d="M21.5 18.09L16.81 13.4C17.87 12.05 18.5 10.35 18.5 8.5C18.5 4.08 14.92 0.5 10.5 0.5C6.42 0.5 3.06 3.55 2.57 7.5H4.59C5.07 4.67 7.53 2.5 10.5 2.5C13.81 2.5 16.5 5.19 16.5 8.5C16.5 11.81 13.81 14.5 10.5 14.5C8.08 14.5 6 13.06 5.05 11H2.9C3.95 14.19 6.96 16.5 10.5 16.5C12.35 16.5 14.05 15.87 15.4 14.81L20.09 19.5L21.5 18.09Z" fill="black"/>
<path d="M7.93 7.19L9.15 12.5H10.79L12.05 8.72L13 11H15V9.5H14L12.75 6.5H11.21L10.09 9.87L8.85 4.5H7.2L5.95 8.5H0.5V10H7.05L7.93 7.19Z" fill="black"/>
</svg>
