<svg width="17" height="22" viewBox="0 0 17 22" fill="none" xmlns="http://www.w3.org/2000/svg">
<path fill-rule="evenodd" clip-rule="evenodd" d="M17 20.6296C17 21.294 16.4812 21.8333 15.8393 21.8333C15.1974 21.8333 14.6786 21.294 14.6786 20.6296C14.6786 17.311 12.0751 14.6111 8.875 14.6111C5.67491 14.6111 3.07143 17.311 3.07143 20.6296C3.07143 21.294 2.55259 21.8333 1.91071 21.8333C1.26884 21.8333 0.75 21.294 0.75 20.6296C0.75 15.9833 4.3958 12.2037 8.875 12.2037C13.3542 12.2037 17 15.9833 17 20.6296M8.875 2.57403C10.1553 2.57403 11.1964 3.65376 11.1964 4.98144C11.1964 6.30913 10.1553 7.38885 8.875 7.38885C7.59473 7.38885 6.55357 6.30913 6.55357 4.98144C6.55357 3.65376 7.59473 2.57403 8.875 2.57403M8.875 9.79626C11.4355 9.79626 13.5179 7.63681 13.5179 4.98144C13.5179 2.32607 11.4355 0.166626 8.875 0.166626C6.31446 0.166626 4.23214 2.32607 4.23214 4.98144C4.23214 7.63681 6.31446 9.79626 8.875 9.79626" fill="black"/>
</svg>
