<svg width="56" height="56" viewBox="0 0 56 56" fill="none" xmlns="http://www.w3.org/2000/svg">
<path d="M53.3333 13.3333V33.3333H48V16L34.6667 6.66667L21.3333 16V20H16V13.3333L34.6667 0L53.3333 13.3333ZM38.6667 14.6667H36V17.3333H38.6667V14.6667ZM33.3333 14.6667H30.6667V17.3333H33.3333V14.6667ZM38.6667 20H36V22.6667H38.6667V20ZM33.3333 20H30.6667V22.6667H33.3333V20ZM48 38.6667H42.6667C42.6667 35.4667 40.6667 32.5867 37.68 31.4667L21.2533 25.3333H0V54.6667H16V50.8267L34.6667 56L56 49.3333V46.6667C56 42.24 52.4267 38.6667 48 38.6667ZM5.33333 49.3333V30.6667H10.6667V49.3333H5.33333ZM34.5867 50.4267L16 45.28V30.6667H20.2933L35.8133 36.4533C36.72 36.8 37.3333 37.68 37.3333 38.6667C37.3333 38.6667 32.0267 38.5333 31.2 38.2667L24.8533 36.16L23.1733 41.2267L29.52 43.3333C30.88 43.7867 32.2933 44.0267 33.7333 44.0267H48C49.04 44.0267 49.9733 44.64 50.4 45.52L34.5867 50.4267Z" fill="#26E600"/>
</svg>
