<svg width="20" height="20" viewBox="0 0 20 20" fill="none" xmlns="http://www.w3.org/2000/svg">
<path d="M13 8.5C13 7.95 13.45 7.5 14 7.5C14.55 7.5 15 7.95 15 8.5C15 9.05 14.55 9.5 14 9.5C13.45 9.5 13 9.05 13 8.5ZM6 7.5H11V5.5H6V7.5ZM20 6V12.97L17.18 13.91L15.5 19.5H10V17.5H8V19.5H2.5C2.5 19.5 0 11.04 0 8C0 4.96 2.46 2.5 5.5 2.5H10.5C11.41 1.29 12.86 0.5 14.5 0.5C15.33 0.5 16 1.17 16 2C16 2.21 15.96 2.4 15.88 2.58C15.74 2.92 15.62 3.31 15.56 3.73L17.83 6H20ZM18 8H17L13.5 4.5C13.5 3.85 13.59 3.21 13.76 2.59C12.79 2.84 12 3.56 11.67 4.5H5.5C3.57 4.5 2 6.07 2 8C2 9.88 3.22 14.65 4.01 17.5H6V15.5H12V17.5H14.01L15.56 12.35L18 11.53V8Z" fill="#26e500"/>
</svg>
