<svg width="38" height="32" viewBox="0 0 38 32" fill="none" xmlns="http://www.w3.org/2000/svg">
<path d="M22.4334 13.8167L19 12.25L22.4334 10.6833L24 7.25L25.5667 10.6833L29 12.25L25.5667 13.8167L24 17.25L22.4334 13.8167ZM5.66669 20.5833L7.23335 17.15L10.6667 15.5833L7.23335 14.0167L5.66669 10.5833L4.10002 14.0167L0.666687 15.5833L4.10002 17.15L5.66669 20.5833ZM13.1667 12.25L14.9834 8.23333L19 6.41667L14.9834 4.6L13.1667 0.583332L11.35 4.6L7.33335 6.41667L11.35 8.23333L13.1667 12.25ZM6.50002 31.4167L16.5 21.4L23.1667 28.0667L37.3334 12.1333L34.9834 9.78333L23.1667 23.0667L16.5 16.4L4.00002 28.9167L6.50002 31.4167Z" fill="#26E600"/>
</svg>
