<svg width="685" height="560" viewBox="0 0 685 560" fill="none" xmlns="http://www.w3.org/2000/svg">
<path d="M245.983 285H200.071L79.11 98.8796C76.0492 94.1707 73.5181 89.2852 71.5169 84.2231H70.4573C71.3991 89.6383 71.87 101.234 71.87 119.01V285H31.2555V31.7774H80.1695L197.069 213.483C202.013 221.017 205.192 226.197 206.604 229.023H207.311C206.133 222.312 205.545 210.952 205.545 194.942V31.7774H245.983V285ZM422.844 205.713H299.588C300.059 222.43 305.18 235.321 314.951 244.385C324.84 253.45 338.378 257.983 355.566 257.983C374.872 257.983 392.589 252.214 408.718 240.677V273.699C392.236 284.058 370.458 289.238 343.381 289.238C316.776 289.238 295.88 281.056 280.694 264.693C265.625 248.211 258.091 225.079 258.091 195.295C258.091 167.159 266.39 144.262 282.989 126.603C299.706 108.827 320.425 99.9391 345.147 99.9391C369.869 99.9391 388.999 107.885 402.537 123.778C416.075 139.671 422.844 161.744 422.844 189.997V205.713ZM383.289 176.754C383.172 162.038 379.699 150.619 372.871 142.496C366.043 134.255 356.625 130.135 344.617 130.135C332.845 130.135 322.838 134.432 314.598 143.026C306.475 151.62 301.472 162.862 299.588 176.754H383.289ZM578.516 104.177L518.3 195.648L577.81 285H530.308L498.523 229.023C496.522 225.609 494.167 221.253 491.46 215.955H490.753C490.282 217.015 487.81 221.371 483.337 229.023L451.022 285H403.697L465.148 196.354L406.875 104.177H454.553L485.809 162.98C488.163 167.336 490.459 171.809 492.696 176.4H493.225L533.663 104.177H578.516ZM669.381 283.058C661.376 287.06 650.839 289.061 637.772 289.061C602.691 289.061 585.15 272.227 585.15 238.558V136.316H554.954V104.177H585.15V62.3265L626.117 50.6719V104.177H669.381V136.316H626.117V226.727C626.117 237.44 628.06 245.092 631.945 249.683C635.83 254.274 642.304 256.57 651.369 256.57C658.315 256.57 664.319 254.569 669.381 250.566V283.058ZM228.854 537.695C202.484 552.057 173.112 559.238 140.738 559.238C103.302 559.238 72.9884 547.583 49.7969 524.274C26.6054 500.965 15.0097 470.122 15.0097 431.744C15.0097 392.542 27.665 360.404 52.9754 335.328C78.4037 310.136 110.66 297.539 149.744 297.539C177.88 297.539 201.542 301.66 220.731 309.9V353.164C201.307 340.214 178.174 333.739 151.333 333.739C124.375 333.739 102.243 342.627 84.9373 360.404C67.7497 378.18 59.1559 401.195 59.1559 429.448C59.1559 458.526 66.5725 481.423 81.4056 498.14C96.2387 514.739 116.369 523.038 141.798 523.038C159.221 523.038 174.289 519.683 187.003 512.973V452.757H133.675V417.44H228.854V537.695ZM397.416 475.713H274.16C274.631 492.43 279.752 505.321 289.523 514.385C299.412 523.45 312.95 527.983 330.137 527.983C349.444 527.983 367.161 522.214 383.289 510.677V543.699C366.808 554.058 345.029 559.238 317.953 559.238C291.348 559.238 270.452 551.056 255.265 534.693C240.197 518.211 232.662 495.079 232.662 465.295C232.662 437.159 240.962 414.262 257.561 396.603C274.278 378.827 294.997 369.939 319.719 369.939C344.441 369.939 363.571 377.885 377.109 393.778C390.647 409.671 397.416 431.744 397.416 459.997V475.713ZM357.861 446.754C357.743 432.038 354.271 420.619 347.443 412.496C340.615 404.255 331.197 400.135 319.189 400.135C307.417 400.135 297.41 404.432 289.17 413.026C281.047 421.62 276.044 432.862 274.16 446.754H357.861ZM562.976 555H522.009V453.111C522.009 419.324 510.06 402.431 486.162 402.431C473.683 402.431 463.383 407.14 455.26 416.557C447.137 425.858 443.075 437.63 443.075 451.874V555H401.931V374.177H443.075V404.197H443.782C457.32 381.358 476.862 369.939 502.408 369.939C522.068 369.939 537.077 376.355 547.437 389.187C557.797 401.901 562.976 420.325 562.976 444.458V555Z" fill="#FDFFFA"/>
<path d="M634.5 442.917C620.556 442.917 608.639 438.056 598.75 428.333C588.917 418.611 584 406.861 584 393.083C584 379.361 588.917 367.583 598.75 357.75C608.639 347.917 620.556 343 634.5 343C648.389 343 660.278 347.917 670.167 357.75C680.056 367.583 685 379.361 685 393.083C685 406.861 680.056 418.611 670.167 428.333C660.278 438.056 648.389 442.917 634.5 442.917ZM634.583 351.333C623.139 351.333 613.333 355.444 605.167 363.667C597.056 371.889 593 381.722 593 393.167C593 404.611 597.056 414.389 605.167 422.5C613.333 430.556 623.139 434.583 634.583 434.583C646.083 434.583 655.861 430.556 663.917 422.5C671.972 414.389 676 404.611 676 393.167C676 381.722 671.972 371.889 663.917 363.667C655.861 355.444 646.083 351.333 634.583 351.333ZM660.333 423.917H645.583L639.5 409.417C636.389 402.194 633.028 398.583 629.417 398.583H625.75V423.917H613.75V361.25H632.583C640.417 361.25 646.444 362.778 650.667 365.833C654.889 368.889 657 373.056 657 378.333C657 382.611 655.694 386.278 653.083 389.333C650.528 392.333 646.722 394.361 641.667 395.417V395.667C645.167 396.389 648.639 400.25 652.083 407.25L660.333 423.917ZM625.75 371.25V389.083H632.583C640.306 389.083 644.167 386.083 644.167 380.083C644.167 377.028 643.111 374.806 641 373.417C638.944 371.972 635.694 371.25 631.25 371.25H625.75Z" fill="#FDFFFA"/>
</svg>
