<svg width="1176" height="262" viewBox="0 0 1176 262" fill="none" xmlns="http://www.w3.org/2000/svg">
<path d="M214.727 257.461H168.815L47.8545 71.3403C44.7937 66.6313 42.2626 61.7458 40.2613 56.6837H39.2018C40.1436 62.099 40.6145 73.6947 40.6145 91.4709V257.461H0V4.23804H48.914L165.813 185.944C170.758 193.478 173.936 198.658 175.349 201.483H176.055C174.878 194.773 174.289 183.413 174.289 167.402V4.23804H214.727V257.461Z" fill="#26E600"/>
<path d="M391.589 178.174H268.333C268.804 194.891 273.924 207.781 283.695 216.846C293.584 225.911 307.122 230.443 324.31 230.443C343.617 230.443 361.334 224.675 377.462 213.138V246.159C360.981 256.519 339.202 261.699 312.126 261.699C285.52 261.699 264.624 253.517 249.438 237.153C234.369 220.672 226.835 197.54 226.835 167.756C226.835 139.62 235.135 116.723 251.734 99.0641C268.45 81.2879 289.17 72.3998 313.892 72.3998C338.613 72.3998 357.743 80.3461 371.282 96.2387C384.82 112.131 391.589 134.204 391.589 162.458V178.174ZM352.034 149.214C351.916 134.499 348.443 123.08 341.615 114.957C334.787 106.716 325.37 102.596 313.362 102.596C301.589 102.596 291.583 106.893 283.342 115.486C275.219 124.08 270.216 135.323 268.333 149.214H352.034Z" fill="#26E600"/>
<path d="M547.26 76.6378L487.045 168.109L546.554 257.461H499.053L467.267 201.483C465.266 198.069 462.912 193.714 460.204 188.416H459.498C459.027 189.476 456.555 193.831 452.081 201.483L419.766 257.461H372.441L433.893 168.815L375.62 76.6378H423.298L454.553 135.441C456.908 139.796 459.203 144.27 461.44 148.861H461.97L502.408 76.6378H547.26Z" fill="#26E600"/>
<path d="M638.125 255.518C630.12 259.521 619.584 261.522 606.517 261.522C571.435 261.522 553.894 244.688 553.894 211.019V108.776H523.698V76.6378H553.894V34.7872L594.862 23.1326V76.6378H638.125V108.776H594.862V199.188C594.862 209.901 596.804 217.553 600.689 222.144C604.574 226.735 611.049 229.031 620.114 229.031C627.059 229.031 633.063 227.029 638.125 223.027V255.518Z" fill="#26E600"/>
<path d="M841.121 240.155C814.751 254.518 785.38 261.699 753.006 261.699C715.57 261.699 685.256 250.044 662.064 226.735C638.873 203.426 627.277 172.582 627.277 134.204C627.277 95.0026 639.932 62.8642 665.243 37.7892C690.671 12.5964 722.927 0 762.011 0C790.147 0 813.81 4.12031 832.999 12.3609V55.6242C813.574 42.6747 790.442 36.1999 763.601 36.1999C736.642 36.1999 714.51 45.088 697.205 62.8642C680.017 80.6404 671.423 103.655 671.423 131.909C671.423 160.987 678.84 183.884 693.673 200.6C708.506 217.199 728.637 225.499 754.065 225.499C771.488 225.499 786.557 222.144 799.271 215.433V155.218H745.942V119.901H841.121V240.155Z" fill="#26E600"/>
<path d="M1009.68 178.174H886.427C886.898 194.891 892.019 207.781 901.79 216.846C911.679 225.911 925.217 230.443 942.405 230.443C961.711 230.443 979.429 224.675 995.557 213.138V246.159C979.076 256.519 957.297 261.699 930.221 261.699C903.615 261.699 882.719 253.517 867.533 237.153C852.464 220.672 844.93 197.54 844.93 167.756C844.93 139.62 853.23 116.723 869.828 99.0641C886.545 81.2879 907.264 72.3998 931.986 72.3998C956.708 72.3998 975.838 80.3461 989.376 96.2387C1002.91 112.131 1009.68 134.204 1009.68 162.458V178.174ZM970.129 149.214C970.011 134.499 966.538 123.08 959.71 114.957C952.882 106.716 943.464 102.596 931.457 102.596C919.684 102.596 909.678 106.893 901.437 115.486C893.314 124.08 888.311 135.323 886.427 149.214H970.129Z" fill="#26E600"/>
<path d="M1175.24 257.461H1134.28V155.571C1134.28 121.785 1122.33 104.891 1098.43 104.891C1085.95 104.891 1075.65 109.6 1067.53 119.018C1059.4 128.318 1055.34 140.091 1055.34 154.335V257.461H1014.2V76.6378H1055.34V106.657H1056.05C1069.59 83.8189 1089.13 72.3998 1114.68 72.3998C1134.34 72.3998 1149.34 78.8157 1159.7 91.6475C1170.06 104.362 1175.24 122.785 1175.24 146.919V257.461Z" fill="#26E600"/>
</svg>
